<?xml version="1.0" encoding="UTF-8" standalone="no"?>
<svg
   xmlns:dc="http://purl.org/dc/elements/1.1/"
   xmlns:cc="http://creativecommons.org/ns#"
   xmlns:rdf="http://www.w3.org/1999/02/22-rdf-syntax-ns#"
   xmlns:svg="http://www.w3.org/2000/svg"
   xmlns="http://www.w3.org/2000/svg"
   xmlns:sodipodi="http://sodipodi.sourceforge.net/DTD/sodipodi-0.dtd"
   xmlns:inkscape="http://www.inkscape.org/namespaces/inkscape"
   version="1.1"
   width="297.0022mm"
   height="210.00719mm"
   viewBox="0 0 841.89597 595.29597"
   id="svg90"
   sodipodi:docname="panel.svg"
   inkscape:version="0.92.4 (5da689c313, 2019-01-14)">
  <metadata
     id="metadata96">
    <rdf:RDF>
      <cc:Work
         rdf:about="">
        <dc:format>image/svg+xml</dc:format>
        <dc:type
           rdf:resource="http://purl.org/dc/dcmitype/StillImage" />
        <dc:title>SVG Picture created as sample_and_hold-Edge_Cuts.svg date 2024/03/21 21:46:52 </dc:title>
      </cc:Work>
    </rdf:RDF>
  </metadata>
  <defs
     id="defs94" />
  <sodipodi:namedview
     pagecolor="#ffffff"
     bordercolor="#666666"
     borderopacity="1"
     objecttolerance="10"
     gridtolerance="10"
     guidetolerance="10"
     inkscape:pageopacity="0"
     inkscape:pageshadow="2"
     inkscape:window-width="2400"
     inkscape:window-height="1261"
     id="namedview92"
     showgrid="false"
     inkscape:snap-bbox="true"
     inkscape:zoom="1.0120015"
     inkscape:cx="-364.22811"
     inkscape:cy="249.12951"
     inkscape:window-x="-9"
     inkscape:window-y="-9"
     inkscape:window-maximized="1"
     inkscape:current-layer="layer1"
     inkscape:document-units="mm"
     units="mm"
     inkscape:snap-bbox-midpoints="true"
     showguides="true"
     inkscape:guide-bbox="true">
    <sodipodi:guide
       position="-40.760809,443.18116"
       orientation="1,0"
       id="guide5463"
       inkscape:locked="false"
       inkscape:label=""
       inkscape:color="rgb(0,0,255)" />
    <sodipodi:guide
       position="-41.131363,355.74803"
       orientation="0,1"
       id="guide5465"
       inkscape:locked="false"
       inkscape:label=""
       inkscape:color="rgb(0,0,255)" />
    <sodipodi:guide
       position="74.481117,8.503937"
       orientation="0,1"
       id="guide5471"
       inkscape:locked="false"
       inkscape:label=""
       inkscape:color="rgb(0,0,255)" />
  </sodipodi:namedview>
  <title
     id="title2">SVG Picture created as sample_and_hold-Edge_Cuts.svg date 2024/03/21 21:46:52 </title>
  <desc
     id="desc4">Picture generated by PCBNEW </desc>
  <g
     style="fill:#000000;fill-opacity:1;stroke:#000000;stroke-width:27.88630295;stroke-linecap:round;stroke-linejoin:round;stroke-miterlimit:4;stroke-dasharray:none;stroke-opacity:1"
     transform="matrix(0.00717198,0,0,0.00717198,-127.0588,173.87729)"
     id="g6" />
  <g
     style="fill:#000000;fill-opacity:0;stroke:#000000;stroke-width:27.88630295;stroke-linecap:round;stroke-linejoin:round;stroke-miterlimit:4;stroke-dasharray:none;stroke-opacity:1"
     id="g8"
     transform="matrix(0.00717198,0,0,0.00717198,-127.0588,173.87729)" />
  <g
     inkscape:groupmode="layer"
     id="layer1"
     inkscape:label="panel"
     style="display:inline">
    <path
       style="fill:#ffffff;fill-opacity:1;fill-rule:evenodd;stroke:none;stroke-width:19.68748856;stroke-miterlimit:4;stroke-dasharray:none;stroke-opacity:1"
       d="M 0,232.46123 H 56.472286 V 595.29567 H 0 Z"
       id="rect4644"
       inkscape:export-xdpi="600"
       inkscape:export-ydpi="600" />
  </g>
  <g
     inkscape:groupmode="layer"
     id="layer2"
     inkscape:label="holes"
     style="display:inline">
    <path
       style="fill:#000000;fill-opacity:0;stroke:#000000;stroke-width:0.19999997;stroke-linecap:round;stroke-linejoin:round;stroke-miterlimit:4;stroke-dasharray:none;stroke-opacity:1"
       d="m 38.167716,288.27037 a 9.8212603,9.8212603 0 0 1 -9.821259,9.82126 9.8212603,9.8212603 0 0 1 -9.82126,-9.82126 9.8212603,9.8212603 0 0 1 9.82126,-9.82125 9.8212603,9.8212603 0 0 1 9.821259,9.82125 z"
       id="circle20-6"
       inkscape:connector-curvature="0" />
    <path
       style="fill:#000000;fill-opacity:0;stroke:#000000;stroke-width:0.19999999;stroke-linecap:round;stroke-linejoin:round;stroke-miterlimit:4;stroke-dasharray:none;stroke-opacity:1"
       d="m 35.226286,374.69275 a 6.9866142,6.9866142 0 0 1 -6.986614,6.98661 6.9866142,6.9866142 0 0 1 -6.986615,-6.98661 6.9866142,6.9866142 0 0 1 6.986615,-6.98662 6.9866142,6.9866142 0 0 1 6.986614,6.98662 z"
       id="circle20"
       inkscape:connector-curvature="0" />
    <path
       style="fill:#000000;fill-opacity:0;stroke:#000000;stroke-width:0.19999999;stroke-linecap:round;stroke-linejoin:round;stroke-miterlimit:4;stroke-dasharray:none;stroke-opacity:1"
       d="m 36.841552,413.42145 a 8.4039373,8.4039373 0 0 1 -8.403938,8.40394 8.4039373,8.4039373 0 0 1 -8.403937,-8.40394 8.4039373,8.4039373 0 0 1 8.403937,-8.40394 8.4039373,8.4039373 0 0 1 8.403938,8.40394 z"
       id="circle20-8"
       inkscape:connector-curvature="0" />
    <path
       style="fill:#000000;fill-opacity:0;stroke:#000000;stroke-width:0.19999999;stroke-linecap:round;stroke-linejoin:round;stroke-miterlimit:4;stroke-dasharray:none;stroke-opacity:1"
       d="m 36.643609,470.79727 a 8.4039373,8.4039373 0 0 1 -8.403937,8.40394 8.4039373,8.4039373 0 0 1 -8.403938,-8.40394 8.4039373,8.4039373 0 0 1 8.403938,-8.40394 8.4039373,8.4039373 0 0 1 8.403937,8.40394 z"
       id="circle20-8-9"
       inkscape:connector-curvature="0" />
    <path
       style="fill:#000000;fill-opacity:0;stroke:#000000;stroke-width:0.19999999;stroke-linecap:round;stroke-linejoin:round;stroke-miterlimit:4;stroke-dasharray:none;stroke-opacity:1"
       d="m 36.643609,538.93109 a 8.4039373,8.4039373 0 0 1 -8.403937,8.40394 8.4039373,8.4039373 0 0 1 -8.403938,-8.40394 8.4039373,8.4039373 0 0 1 8.403938,-8.40394 8.4039373,8.4039373 0 0 1 8.403937,8.40394 z"
       id="circle20-8-9-3"
       inkscape:connector-curvature="0" />
    <path
       style="fill:#000000;fill-opacity:0;stroke:#000000;stroke-width:0.19999996;stroke-linecap:round;stroke-linejoin:round;stroke-miterlimit:4;stroke-dasharray:none;stroke-opacity:1"
       d="m 25.695277,586.79203 a 4.4354329,4.4354329 0 0 1 -4.43544,4.43543 4.4354329,4.4354329 0 0 1 -4.43543,-4.43543 4.4354329,4.4354329 0 0 1 4.43543,-4.43543 4.4354329,4.4354329 0 0 1 4.43544,4.43543 z"
       id="circle20-6-0"
       inkscape:connector-curvature="0" />
    <path
       style="fill:#000000;fill-opacity:0;stroke:#000000;stroke-width:0.19999994;stroke-linecap:round;stroke-linejoin:round;stroke-miterlimit:4;stroke-dasharray:none;stroke-opacity:1"
       d="m 25.695277,239.54793 a 4.4354328,4.4354328 0 0 1 -4.43544,4.43543 4.4354328,4.4354328 0 0 1 -4.43543,-4.43543 4.4354328,4.4354328 0 0 1 4.43543,-4.43543 4.4354328,4.4354328 0 0 1 4.43544,4.43543 z"
       id="circle20-6-0-0"
       inkscape:connector-curvature="0" />
  </g>
  <g
     inkscape:groupmode="layer"
     id="layer3"
     inkscape:label="drill"
     style="display:inline">
    <path
       inkscape:connector-curvature="0"
       id="path2583-2"
       style="fill:none;stroke:#000000;stroke-width:0.5669291;stroke-linecap:butt;stroke-linejoin:miter;stroke-miterlimit:4;stroke-dasharray:none;stroke-opacity:1"
       d="M 38.267716,288.27039 H 18.425198 m 9.92126,-9.92126 v 19.8425" />
    <path
       inkscape:connector-curvature="0"
       id="path2583-2-3"
       style="fill:none;stroke:#000000;stroke-width:0.5669291;stroke-linecap:butt;stroke-linejoin:miter;stroke-miterlimit:4;stroke-dasharray:none;stroke-opacity:1"
       d="m 35.326287,374.69275 h -14.17323 m 7.08661,-7.08662 v 14.17323" />
    <path
       inkscape:connector-curvature="0"
       id="path2583-2-2"
       style="fill:none;stroke:#000000;stroke-width:0.5669291;stroke-linecap:butt;stroke-linejoin:miter;stroke-miterlimit:4;stroke-dasharray:none;stroke-opacity:1"
       d="m 36.941554,413.42145 h -17.00788 m 8.50393,-8.50395 v 17.0079" />
    <path
       inkscape:connector-curvature="0"
       id="path2583-2-6"
       style="fill:none;stroke:#000000;stroke-width:0.5669291;stroke-linecap:butt;stroke-linejoin:miter;stroke-miterlimit:4;stroke-dasharray:none;stroke-opacity:1"
       d="M 36.743609,470.79727 H 19.735735 m 8.50394,-8.50392 v 17.00785" />
    <path
       inkscape:connector-curvature="0"
       id="path2583-2-38"
       style="fill:none;stroke:#000000;stroke-width:0.5669291;stroke-linecap:butt;stroke-linejoin:miter;stroke-miterlimit:4;stroke-dasharray:none;stroke-opacity:1"
       d="m 36.743612,538.9311 h -17.00788 m 8.50394,-8.50394 v 17.00787" />
    <path
       inkscape:connector-curvature="0"
       id="path2583-2-4"
       style="fill:none;stroke:#000000;stroke-width:0.5669291;stroke-linecap:butt;stroke-linejoin:miter;stroke-miterlimit:4;stroke-dasharray:none;stroke-opacity:1"
       d="m 25.795272,586.79203 h -9.07086 m 4.53543,-4.53543 v 9.07086" />
    <path
       inkscape:connector-curvature="0"
       id="path2583-2-4-9"
       style="fill:none;stroke:#000000;stroke-width:0.5669291;stroke-linecap:butt;stroke-linejoin:miter;stroke-miterlimit:4;stroke-dasharray:none;stroke-opacity:1"
       d="m 25.795272,239.54793 h -9.07086 m 4.53543,-4.53543 v 9.07086" />
  </g>
  <g
     inkscape:groupmode="layer"
     id="layer4"
     inkscape:label="Footprint"
     style="display:inline">
    <path
       style="fill:#000000;fill-opacity:0;stroke:#00ff00;stroke-width:0.20125984;stroke-linecap:round;stroke-linejoin:round;stroke-miterlimit:4;stroke-dasharray:none;stroke-opacity:1"
       d="m 46.246459,288.27037 a 17.899998,17.899998 0 0 1 -17.900002,17.9 17.899998,17.899998 0 0 1 -17.900003,-17.9 17.899998,17.899998 0 0 1 17.900003,-17.89998 17.899998,17.899998 0 0 1 17.900002,17.89998 z"
       id="circle20-6-4"
       inkscape:connector-curvature="0" />
    <path
       style="fill:#000000;fill-opacity:0;stroke:#00ff00;stroke-width:0.20125982;stroke-linecap:round;stroke-linejoin:round;stroke-miterlimit:4;stroke-dasharray:none;stroke-opacity:1"
       d="M 38.966905,413.42144 A 10.529288,10.529288 0 0 1 28.437614,423.95073 10.529288,10.529288 0 0 1 17.908323,413.42144 10.529288,10.529288 0 0 1 28.437614,402.89216 10.529288,10.529288 0 0 1 38.966905,413.42144 Z"
       id="circle20-6-4-8"
       inkscape:connector-curvature="0" />
    <path
       style="fill:#000000;fill-opacity:0;stroke:#00ff00;stroke-width:0.20125982;stroke-linecap:round;stroke-linejoin:round;stroke-miterlimit:4;stroke-dasharray:none;stroke-opacity:1"
       d="m 38.768962,470.79727 a 10.529287,10.529287 0 0 1 -10.52929,10.52929 10.529287,10.529287 0 0 1 -10.529291,-10.52929 10.529287,10.529287 0 0 1 10.529291,-10.52928 10.529287,10.529287 0 0 1 10.52929,10.52928 z"
       id="circle20-6-4-8-7"
       inkscape:connector-curvature="0" />
    <path
       style="fill:#000000;fill-opacity:0;stroke:#00ff00;stroke-width:0.20125982;stroke-linecap:round;stroke-linejoin:round;stroke-miterlimit:4;stroke-dasharray:none;stroke-opacity:1"
       d="m 38.768963,538.93109 a 10.529287,10.529287 0 0 1 -10.52929,10.52929 10.529287,10.529287 0 0 1 -10.529292,-10.52929 10.529287,10.529287 0 0 1 10.529292,-10.52928 10.529287,10.529287 0 0 1 10.52929,10.52928 z"
       id="circle20-6-4-8-5"
       inkscape:connector-curvature="0" />
  </g>
  <g
     inkscape:groupmode="layer"
     id="layer5"
     inkscape:label="Labels"
     style="display:inline">
    <text
       xml:space="preserve"
       style="font-style:normal;font-weight:normal;font-size:10px;line-height:1.25;font-family:sans-serif;letter-spacing:0px;word-spacing:0px;fill:#000000;fill-opacity:1;stroke:none;stroke-width:0.75"
       x="27.791451"
       y="243.18318"
       id="text5469"><tspan
         sodipodi:role="line"
         id="tspan5467"
         x="27.791451"
         y="243.18318"
         style="stroke-width:0.75">YASH</tspan></text>
    <text
       xml:space="preserve"
       style="font-style:normal;font-weight:normal;font-size:10px;line-height:1.25;font-family:sans-serif;letter-spacing:0px;word-spacing:0px;fill:#000000;fill-opacity:1;stroke:none;stroke-width:0.75"
       x="28.903122"
       y="590.42731"
       id="text5475"><tspan
         sodipodi:role="line"
         id="tspan5473"
         x="28.903122"
         y="590.42731"
         style="stroke-width:0.75">R.S.</tspan></text>
    <text
       xml:space="preserve"
       style="font-style:normal;font-weight:normal;font-size:10px;line-height:1.25;font-family:sans-serif;letter-spacing:0px;word-spacing:0px;fill:#000000;fill-opacity:1;stroke:none;stroke-width:0.75"
       x="10.846457"
       y="520.07373"
       id="text5479"><tspan
         sodipodi:role="line"
         id="tspan5477"
         x="10.846457"
         y="520.07373"
         style="stroke-width:0.75">Output</tspan></text>
    <text
       xml:space="preserve"
       style="font-style:normal;font-weight:normal;font-size:10px;line-height:1.25;font-family:sans-serif;letter-spacing:0px;word-spacing:0px;fill:#000000;fill-opacity:1;stroke:none;stroke-width:0.75"
       x="16.764425"
       y="263.65118"
       id="text5483"><tspan
         sodipodi:role="line"
         id="tspan5481"
         x="16.764425"
         y="263.65118"
         style="stroke-width:0.75">Rate</tspan></text>
    <text
       xml:space="preserve"
       style="font-style:normal;font-weight:normal;font-size:10px;line-height:1.25;font-family:sans-serif;letter-spacing:0px;word-spacing:0px;fill:#000000;fill-opacity:1;stroke:none;stroke-width:0.75"
       x="10.870871"
       y="395.93854"
       id="text5487"><tspan
         sodipodi:role="line"
         id="tspan5485"
         x="10.870871"
         y="395.93854"
         style="stroke-width:0.75">Trigger</tspan></text>
    <text
       xml:space="preserve"
       style="font-style:normal;font-weight:normal;font-size:10px;line-height:1.25;font-family:sans-serif;letter-spacing:0px;word-spacing:0px;fill:#000000;fill-opacity:1;stroke:none;stroke-width:0.75"
       x="14.591574"
       y="453.37421"
       id="text5491"><tspan
         sodipodi:role="line"
         id="tspan5489"
         x="14.591574"
         y="453.37421"
         style="stroke-width:0.75">Input</tspan></text>
  </g>
</svg>
